# xmcd
#
# Track frame offsets:
#	150
#	12908
#	32448
#	44875
#	73525
#	88963
#	101082
#	113255
#	124486
#	137124
#	149694
#	164192
#	178833
#	191978
#	211176
#	225207
#	239007
#
# Disc length: 3397 seconds
# Revision: 2
# Processed by: cddbd v1.5.2PL0 Copyright (c) Steve Scherf et al.
# Submitted via: dBpowerAMP V12.0
#
DISCID=040d4311
DTITLE=Various Artist - The real blues: The ultimate collection CD2
DYEAR=1929
DGENRE=Blues
TTITLE0=Robert Johnson - 32-20 blues
TTITLE1=Son House - Death letter blues
TTITLE2=Memphis Minnie - Me and my chauffeur blues
TTITLE3=Billie Holiday with Mal Waldron and The All Stars - Fine and mellow
TTITLE4=Duke Ellington - Mississippi moan
TTITLE5=Memphis Slim - Whiskey and gin blues
TTITLE6=Champion Jack Dupree - Dupree shake dance
TTITLE7=Robert Lee McCoy - Take it easy baby
TTITLE8=Joe Williams - Baby, please don't go
TTITLE9=Bukka White - Fixin' to die blues
TTITLE10=Leadbelly aka Huddie Ledbetter - Easy rider
TTITLE11="Sonny Boy" Williamson - Sloppy drunk blues
TTITLE12=Taj Mahal - Texas woman blues
TTITLE13=Willie Dixon - You shook me
TTITLE14=Johnny "Guitar" Watson - Summertime
TTITLE15=Roy Milton - R.M. Blues [live]
TTITLE16=Muddy Walters - I can't be satisfied
EXTD=
EXTT0=
EXTT1=
EXTT2=
EXTT3=
EXTT4=
EXTT5=
EXTT6=
EXTT7=
EXTT8=
EXTT9=
EXTT10=
EXTT11=
EXTT12=
EXTT13=
EXTT14=
EXTT15=
EXTT16=
PLAYORDER=
